<svg width="46" height="49" viewBox="0 0 46 49" fill="none" xmlns="http://www.w3.org/2000/svg">
<path fill-rule="evenodd" clip-rule="evenodd" d="M9.2552 7.3696L10.4113 12.4727L14.0453 28.5269C14.3892 30.0461 15.0169 31.4586 15.8838 32.664C16.7507 33.8693 17.8356 34.8378 19.0612 35.5005C20.2868 36.1633 21.623 36.5041 22.9748 36.4986C24.3266 36.4931 25.6608 36.1416 26.8824 35.4689L40.7376 27.8427C42.3118 26.9764 43.642 25.6086 44.5736 23.8984C45.5052 22.1881 45.9998 20.2057 46 18.1817V14.2545C46 12.3643 45.3538 10.5514 44.2036 9.2148C43.0534 7.87818 41.4933 7.12727 39.8667 7.12727H13.9717L13.5117 5.22073C13.1533 3.72018 12.3817 2.39737 11.3151 1.45457C10.2485 0.511766 8.94546 0.000868822 7.60533 0H2.3C1.69 1.05627e-08 1.10499 0.28159 0.673654 0.782824C0.242321 1.28406 0 1.96388 0 2.67273C0 3.38158 0.242321 4.0614 0.673654 4.56263C1.10499 5.06386 1.69 5.34545 2.3 5.34545H7.60533C7.94053 5.34523 8.26655 5.47264 8.5335 5.7082C8.80046 5.94376 8.99363 6.27448 9.08347 6.64974L9.2552 7.3696ZM24.9136 30.6401L38.7688 23.014C39.5561 22.5807 40.2214 21.8965 40.6872 21.041C41.153 20.1856 41.4002 19.194 41.4 18.1817V14.2545C41.4 13.782 41.2385 13.3288 40.9509 12.9946C40.6633 12.6605 40.2733 12.4727 39.8667 12.4727H15.1677L18.492 27.1692C18.6643 27.9285 18.9784 28.6343 19.412 29.2366C19.8456 29.8388 20.3881 30.3227 21.0008 30.6537C21.6136 30.9847 22.2816 31.1548 22.9573 31.1518C23.6331 31.1489 24.2999 30.973 24.9105 30.6366L24.9136 30.6401ZM36.8 49C38.2233 49 39.5884 48.343 40.5948 47.1734C41.6013 46.0039 42.1667 44.4176 42.1667 42.7636C42.1667 41.1096 41.6013 39.5234 40.5948 38.3539C39.5884 37.1843 38.2233 36.5273 36.8 36.5273C35.3767 36.5273 34.0116 37.1843 33.0052 38.3539C31.9987 39.5234 31.4333 41.1096 31.4333 42.7636C31.4333 44.4176 31.9987 46.0039 33.0052 47.1734C34.0116 48.343 35.3767 49 36.8 49ZM14.5667 42.7636C14.5667 43.5826 14.4279 44.3936 14.1582 45.1502C13.8885 45.9068 13.4931 46.5943 12.9948 47.1734C12.4965 47.7525 11.9048 48.2119 11.2537 48.5253C10.6026 48.8387 9.90476 49 9.2 49C8.49524 49 7.79738 48.8387 7.14627 48.5253C6.49515 48.2119 5.90353 47.7525 5.40519 47.1734C4.90685 46.5943 4.51155 45.9068 4.24185 45.1502C3.97215 44.3936 3.83333 43.5826 3.83333 42.7636C3.83333 41.1096 4.39875 39.5234 5.40519 38.3539C6.41164 37.1843 7.77667 36.5273 9.2 36.5273C10.6233 36.5273 11.9884 37.1843 12.9948 38.3539C14.0013 39.5234 14.5667 41.1096 14.5667 42.7636Z" fill="black"/>
</svg>
