<svg width="28" height="21" viewBox="0 0 28 21" fill="none" xmlns="http://www.w3.org/2000/svg">
<path fill-rule="evenodd" clip-rule="evenodd" d="M21.8383 3.39671H5.63828C4.9222 3.39671 4.23544 3.68404 3.72909 4.19551C3.22274 4.70697 2.93828 5.40066 2.93828 6.12398H24.5383C24.5383 5.40066 24.2538 4.70697 23.7475 4.19551C23.2411 3.68404 22.5544 3.39671 21.8383 3.39671ZM2.93828 15.2149V8.85125H24.5383V15.2149C24.5383 15.9382 24.2538 16.6319 23.7475 17.1434C23.2411 17.6548 22.5544 17.9422 21.8383 17.9422H5.63828C4.9222 17.9422 4.23544 17.6548 3.72909 17.1434C3.22274 16.6319 2.93828 15.9382 2.93828 15.2149ZM5.63828 0.669434C4.20611 0.669434 2.8326 1.24411 1.8199 2.26703C0.807208 3.28996 0.238281 4.67734 0.238281 6.12398V15.2149C0.238281 16.6615 0.807208 18.0489 1.8199 19.0718C2.8326 20.0948 4.20611 20.6694 5.63828 20.6694H21.8383C23.2705 20.6694 24.644 20.0948 25.6567 19.0718C26.6694 18.0489 27.2383 16.6615 27.2383 15.2149V6.12398C27.2383 4.67734 26.6694 3.28996 25.6567 2.26703C24.644 1.24411 23.2705 0.669434 21.8383 0.669434H5.63828ZM6.98828 12.4876C6.63024 12.4876 6.28686 12.6313 6.03369 12.887C5.78051 13.1427 5.63828 13.4896 5.63828 13.8513C5.63828 14.2129 5.78051 14.5598 6.03369 14.8155C6.28686 15.0712 6.63024 15.2149 6.98828 15.2149H11.4883C11.8463 15.2149 12.1897 15.0712 12.4429 14.8155C12.696 14.5598 12.8383 14.2129 12.8383 13.8513C12.8383 13.4896 12.696 13.1427 12.4429 12.887C12.1897 12.6313 11.8463 12.4876 11.4883 12.4876H6.98828Z" fill="black"/>
</svg>
