<svg width="28" height="28" viewBox="0 0 28 28" fill="none" xmlns="http://www.w3.org/2000/svg">
<path d="M17.6192 18.9507L14.233 15.5644C14.1092 15.4407 13.963 15.4182 13.8842 15.4182C13.8055 15.4182 13.6592 15.4407 13.5355 15.5644L10.138 18.9619C9.75547 19.3444 9.15922 19.9632 7.16797 19.9632L11.3417 24.1257C11.9745 24.7577 12.8323 25.1127 13.7267 25.1127C14.6211 25.1127 15.4789 24.7577 16.1117 24.1257L20.2967 19.9519C19.273 19.9519 18.418 19.7494 17.6192 18.9507ZM10.138 8.76943L13.5355 12.1669C13.6255 12.2569 13.7605 12.3132 13.8842 12.3132C14.008 12.3132 14.143 12.2569 14.233 12.1669L17.5967 8.80318C18.3955 7.97068 19.3067 7.77943 20.3305 7.77943L16.1455 3.60568C15.5127 2.97366 14.6548 2.61865 13.7605 2.61865C12.8661 2.61865 12.0083 2.97366 11.3755 3.60568L7.20172 7.76818C9.18172 7.76818 9.78922 8.42068 10.138 8.76943Z" fill="black"/>
<path d="M23.987 11.4468L21.4557 8.90434H20.0382C19.4307 8.90434 18.8232 9.15184 18.407 9.59059L15.032 12.9656C14.717 13.2806 14.3007 13.4381 13.8845 13.4381C13.4559 13.4321 13.0456 13.2631 12.737 12.9656L9.33949 9.55684C8.91199 9.12934 8.32699 8.88184 7.70824 8.88184H6.05449L3.47824 11.4693C2.84621 12.1021 2.49121 12.96 2.49121 13.8543C2.49121 14.7487 2.84621 15.6065 3.47824 16.2393L6.05449 18.8268H7.71949C8.32699 18.8268 8.91199 18.5793 9.35074 18.1518L12.7482 14.7543C13.0632 14.4393 13.4795 14.2818 13.8957 14.2818C14.312 14.2818 14.7282 14.4393 15.0432 14.7543L18.4295 18.1406C18.857 18.5681 19.442 18.8156 20.0607 18.8156H21.4782L24.0095 16.2731C24.6442 15.6289 24.9981 14.7596 24.9939 13.8553C24.9896 12.951 24.6277 12.0851 23.987 11.4468Z" fill="black"/>
</svg>
