<svg width="41" height="44" viewBox="0 0 41 44" fill="none" xmlns="http://www.w3.org/2000/svg">
<path fill-rule="evenodd" clip-rule="evenodd" d="M31.2661 19.1728C31.2661 21.0614 30.9195 22.9314 30.2461 24.6762C29.5726 26.421 28.5856 28.0064 27.3412 29.3418C26.0969 30.6772 24.6196 31.7365 22.9938 32.4592C21.3679 33.1819 19.6254 33.5539 17.8656 33.5539C16.1058 33.5539 14.3633 33.1819 12.7374 32.4592C11.1116 31.7365 9.63436 30.6772 8.39 29.3418C7.14565 28.0064 6.15858 26.421 5.48514 24.6762C4.8117 22.9314 4.46508 21.0614 4.46508 19.1728C4.46508 15.3588 5.87692 11.7009 8.39 9.00391C10.9031 6.30694 14.3116 4.79179 17.8656 4.79179C21.4196 4.79179 24.8281 6.30694 27.3412 9.00391C29.8543 11.7009 31.2661 15.3588 31.2661 19.1728ZM28.8243 34.3209C25.234 37.3121 20.7165 38.7225 16.1914 38.2649C11.6663 37.8074 7.47378 35.5164 4.46731 31.8582C1.46085 28.2 -0.133529 23.4498 0.00876683 18.5744C0.151063 13.6991 2.01933 9.06523 5.23324 5.61616C8.44714 2.16709 12.7651 0.162116 17.308 0.00940831C21.8509 -0.1433 26.2773 1.56774 29.6861 4.79419C33.0948 8.02064 35.2296 12.52 35.656 17.3762C36.0823 22.2324 34.7681 27.0804 31.9808 30.9333L40.2892 39.8496C40.5086 40.069 40.6846 40.3336 40.8067 40.6277C40.9287 40.9217 40.9944 41.239 40.9996 41.5609C41.0049 41.8827 40.9498 42.2024 40.8374 42.5008C40.7251 42.7993 40.5579 43.0704 40.3458 43.298C40.1338 43.5256 39.8811 43.705 39.603 43.8256C39.3249 43.9461 39.0271 44.0053 38.7272 43.9996C38.4273 43.9939 38.1315 43.9235 37.8576 43.7925C37.5836 43.6615 37.3371 43.4726 37.1326 43.2371L28.8243 34.3209Z" fill="black"/>
</svg>
