<svg width="44" height="47" viewBox="0 0 44 47" fill="none" xmlns="http://www.w3.org/2000/svg">
<path fill-rule="evenodd" clip-rule="evenodd" d="M28.2857 11.75C28.2857 13.5307 27.6235 15.2385 26.4447 16.4977C25.2659 17.7569 23.6671 18.4643 22 18.4643C20.3329 18.4643 18.7341 17.7569 17.5553 16.4977C16.3765 15.2385 15.7143 13.5307 15.7143 11.75C15.7143 9.96926 16.3765 8.26146 17.5553 7.00228C18.7341 5.74311 20.3329 5.03571 22 5.03571C23.6671 5.03571 25.2659 5.74311 26.4447 7.00228C27.6235 8.26146 28.2857 9.96926 28.2857 11.75ZM33 11.75C33 14.8663 31.8411 17.855 29.7782 20.0585C27.7153 22.2621 24.9174 23.5 22 23.5C19.0826 23.5 16.2847 22.2621 14.2218 20.0585C12.1589 17.855 11 14.8663 11 11.75C11 8.63371 12.1589 5.64505 14.2218 3.4415C16.2847 1.23794 19.0826 0 22 0C24.9174 0 27.7153 1.23794 29.7782 3.4415C31.8411 5.64505 33 8.63371 33 11.75ZM4.71429 38.6071C4.71429 37.9223 5.40571 35.8912 8.86286 33.7091C12.0623 31.6914 16.72 30.2143 22 30.2143C27.28 30.2143 31.9377 31.6914 35.1371 33.7091C38.5943 35.8912 39.2857 37.9223 39.2857 38.6071C39.2857 39.4975 38.9546 40.3514 38.3652 40.981C37.7758 41.6106 36.9764 41.9643 36.1429 41.9643H7.85714C7.02361 41.9643 6.22421 41.6106 5.63481 40.981C5.04541 40.3514 4.71429 39.4975 4.71429 38.6071ZM22 25.1786C9.9 25.1786 0 31.8929 0 38.6071C0 40.8331 0.827804 42.9678 2.3013 44.5418C3.7748 46.1158 5.7733 47 7.85714 47H36.1429C38.2267 47 40.2252 46.1158 41.6987 44.5418C43.1722 42.9678 44 40.8331 44 38.6071C44 31.8929 34.1 25.1786 22 25.1786Z" fill="black"/>
</svg>
