<svg width="236" height="99" viewBox="0 0 236 99" fill="none" xmlns="http://www.w3.org/2000/svg">
<mask id="path-1-outside-1_36_26" maskUnits="userSpaceOnUse" x="0.269531" y="0" width="235" height="99" fill="black">
<rect fill="white" x="0.269531" width="235" height="99"/>
<path d="M79.7926 64.5455C79.671 63.0303 79.101 61.8485 78.0827 61C77.0796 60.1515 75.5521 59.7273 73.5002 59.7273C72.1931 59.7273 71.1216 59.8864 70.2857 60.2045C69.4649 60.5076 68.857 60.9242 68.4618 61.4545C68.0666 61.9848 67.8615 62.5909 67.8462 63.2727C67.8158 63.8333 67.9146 64.3409 68.1426 64.7955C68.3858 65.2348 68.7658 65.6364 69.2825 66C69.7993 66.3485 70.4605 66.6667 71.266 66.9545C72.0715 67.2424 73.0291 67.5 74.1386 67.7273L77.9687 68.5455C80.5525 69.0909 82.7639 69.8106 84.603 70.7045C86.4421 71.5985 87.9468 72.6515 89.1171 73.8636C90.2874 75.0606 91.1461 76.4091 91.6933 77.9091C92.2556 79.4091 92.5444 81.0455 92.5596 82.8182C92.5444 85.8788 91.7769 88.4697 90.257 90.5909C88.7371 92.7121 86.5637 94.3258 83.7367 95.4318C80.9249 96.5379 77.5431 97.0909 73.5914 97.0909C69.5333 97.0909 65.992 96.4924 62.9674 95.2955C59.958 94.0985 57.6174 92.2576 55.9455 89.7727C54.2889 87.2727 53.4529 84.0758 53.4377 80.1818H65.4752C65.5512 81.6061 65.9084 82.803 66.5468 83.7727C67.1851 84.7424 68.0818 85.4773 69.2369 85.9773C70.4073 86.4773 71.798 86.7273 73.409 86.7273C74.7617 86.7273 75.8941 86.5606 76.806 86.2273C77.7179 85.8939 78.4095 85.4318 78.8806 84.8409C79.3518 84.25 79.595 83.5758 79.6102 82.8182C79.595 82.1061 79.3594 81.4848 78.9034 80.9545C78.4627 80.4091 77.7331 79.9242 76.7148 79.5C75.6965 79.0606 74.321 78.6515 72.5883 78.2727L67.9374 77.2727C63.8034 76.3788 60.5432 74.8864 58.157 72.7955C55.786 70.6894 54.608 67.8182 54.6232 64.1818C54.608 61.2273 55.3984 58.6439 56.9943 56.4318C58.6053 54.2045 60.832 52.4697 63.6742 51.2273C66.5315 49.9848 69.8069 49.3636 73.5002 49.3636C77.2695 49.3636 80.5297 49.9924 83.2807 51.25C86.0317 52.5076 88.1519 54.2803 89.6414 56.5682C91.1461 58.8409 91.9061 61.5 91.9213 64.5455H79.7926Z"/>
<path d="M97.3814 96.5455V47.5455H110.579L110.057 68.1818H126.837V47.5455H133.149H139.513V96.5455H126.837V78.3636H110.057V96.5455H97.3814Z"/>
<path d="M190.763 73.2727C190.763 78.4545 189.753 82.8258 187.731 86.3864C185.71 89.9318 182.981 92.6212 179.546 94.4545C176.112 96.2727 172.281 97.1818 168.056 97.1818C163.8 97.1818 159.955 96.2652 156.52 94.4318C153.1 92.5833 150.38 89.8864 148.358 86.3409C146.352 82.7803 145.349 78.4242 145.349 73.2727C145.349 68.0909 146.352 63.7273 148.358 60.1818C150.38 56.6212 153.1 53.9318 156.52 52.1136C159.955 50.2803 163.8 49.3636 168.056 49.3636C172.281 49.3636 176.112 50.2803 179.546 52.1136C182.981 53.9318 185.71 56.6212 187.731 60.1818C189.753 63.7273 190.763 68.0909 190.763 73.2727ZM177.723 73.2727C177.723 70.4848 177.35 68.1364 176.605 66.2273C175.876 64.303 174.789 62.8485 173.345 61.8636C171.917 60.8636 170.154 60.3636 168.056 60.3636C165.959 60.3636 164.188 60.8636 162.744 61.8636C161.315 62.8485 160.229 64.303 159.484 66.2273C158.754 68.1364 158.39 70.4848 158.39 73.2727C158.39 76.0606 158.754 78.4167 159.484 80.3409C160.229 82.25 161.315 83.7045 162.744 84.7045C164.188 85.6894 165.959 86.1818 168.056 86.1818C170.154 86.1818 171.917 85.6894 173.345 84.7045C174.789 83.7045 175.876 82.25 176.605 80.3409C177.35 78.4167 177.723 76.0606 177.723 73.2727Z"/>
<path d="M196.628 96.5455V50H216.782C220.247 50 223.279 50.6818 225.878 52.0455C228.477 53.4091 230.499 55.3258 231.943 57.7955C233.387 60.2652 234.109 63.1515 234.109 66.4545C234.109 69.7879 233.364 72.6742 231.874 75.1136C230.4 77.553 228.325 79.4318 225.65 80.75C222.991 82.0682 219.882 82.7273 216.326 82.7273H204.288V72.9091H213.772C215.262 72.9091 216.531 72.6515 217.58 72.1364C218.644 71.6061 219.457 70.8561 220.019 69.8864C220.597 68.9167 220.886 67.7727 220.886 66.4545C220.886 65.1212 220.597 63.9848 220.019 63.0455C219.457 62.0909 218.644 61.3636 217.58 60.8636C216.531 60.3485 215.262 60.0909 213.772 60.0909H209.304V96.5455H196.628Z"/>
<path d="M1.26953 47.5455V1H21.5144C25.071 1 28.0575 1.47727 30.4741 2.43182C32.906 3.38636 34.7374 4.73485 35.9685 6.47727C37.2148 8.2197 37.838 10.2727 37.838 12.6364C37.838 14.3485 37.458 15.9091 36.6981 17.3182C35.9533 18.7273 34.9046 19.9091 33.5519 20.8636C32.1992 21.803 30.6185 22.4545 28.8099 22.8182V23.2727C30.8161 23.3485 32.64 23.8561 34.2815 24.7955C35.9229 25.7197 37.23 27 38.2028 28.6364C39.1755 30.2576 39.6619 32.1667 39.6619 34.3636C39.6619 36.9091 38.9931 39.1742 37.6556 41.1591C36.3333 43.1439 34.4487 44.7045 32.0016 45.8409C29.5546 46.9773 26.6364 47.5455 23.2471 47.5455H1.26953ZM13.9454 37.4545H19.8729C22.0008 37.4545 23.5967 37.0606 24.6606 36.2727C25.7245 35.4697 26.2565 34.2879 26.2565 32.7273C26.2565 31.6364 26.0057 30.7121 25.5041 29.9545C25.0026 29.197 24.2882 28.6212 23.3611 28.2273C22.4491 27.8333 21.3472 27.6364 20.0553 27.6364H13.9454V37.4545ZM13.9454 19.8182H19.1434C20.2529 19.8182 21.2332 19.6439 22.0844 19.2955C22.9355 18.947 23.5967 18.447 24.0678 17.7955C24.5542 17.1288 24.7974 16.3182 24.7974 15.3636C24.7974 13.9242 24.2806 12.8258 23.2471 12.0682C22.2136 11.2955 20.9065 10.9091 19.3258 10.9091H13.9454V19.8182Z"/>
<path d="M56.829 1V47.5455H44.1531V1H56.829Z"/>
<path d="M62.8363 47.5455V1H75.5122V19.8182H76.1505L90.1943 1H104.968L89.1912 21.7273L105.332 47.5455H97.7633H90.1943L79.7071 30.0909L75.5122 35.5455V47.5455H62.8363Z"/>
<path d="M108.729 47.5455V1H142.38V11.1818H121.405V19.1818H140.647V29.3636H121.405V37.3636H142.288V47.5455H108.729Z"/>
</mask>
<path d="M79.7926 64.5455C79.671 63.0303 79.101 61.8485 78.0827 61C77.0796 60.1515 75.5521 59.7273 73.5002 59.7273C72.1931 59.7273 71.1216 59.8864 70.2857 60.2045C69.4649 60.5076 68.857 60.9242 68.4618 61.4545C68.0666 61.9848 67.8615 62.5909 67.8462 63.2727C67.8158 63.8333 67.9146 64.3409 68.1426 64.7955C68.3858 65.2348 68.7658 65.6364 69.2825 66C69.7993 66.3485 70.4605 66.6667 71.266 66.9545C72.0715 67.2424 73.0291 67.5 74.1386 67.7273L77.9687 68.5455C80.5525 69.0909 82.7639 69.8106 84.603 70.7045C86.4421 71.5985 87.9468 72.6515 89.1171 73.8636C90.2874 75.0606 91.1461 76.4091 91.6933 77.9091C92.2556 79.4091 92.5444 81.0455 92.5596 82.8182C92.5444 85.8788 91.7769 88.4697 90.257 90.5909C88.7371 92.7121 86.5637 94.3258 83.7367 95.4318C80.9249 96.5379 77.5431 97.0909 73.5914 97.0909C69.5333 97.0909 65.992 96.4924 62.9674 95.2955C59.958 94.0985 57.6174 92.2576 55.9455 89.7727C54.2889 87.2727 53.4529 84.0758 53.4377 80.1818H65.4752C65.5512 81.6061 65.9084 82.803 66.5468 83.7727C67.1851 84.7424 68.0818 85.4773 69.2369 85.9773C70.4073 86.4773 71.798 86.7273 73.409 86.7273C74.7617 86.7273 75.8941 86.5606 76.806 86.2273C77.7179 85.8939 78.4095 85.4318 78.8806 84.8409C79.3518 84.25 79.595 83.5758 79.6102 82.8182C79.595 82.1061 79.3594 81.4848 78.9034 80.9545C78.4627 80.4091 77.7331 79.9242 76.7148 79.5C75.6965 79.0606 74.321 78.6515 72.5883 78.2727L67.9374 77.2727C63.8034 76.3788 60.5432 74.8864 58.157 72.7955C55.786 70.6894 54.608 67.8182 54.6232 64.1818C54.608 61.2273 55.3984 58.6439 56.9943 56.4318C58.6053 54.2045 60.832 52.4697 63.6742 51.2273C66.5315 49.9848 69.8069 49.3636 73.5002 49.3636C77.2695 49.3636 80.5297 49.9924 83.2807 51.25C86.0317 52.5076 88.1519 54.2803 89.6414 56.5682C91.1461 58.8409 91.9061 61.5 91.9213 64.5455H79.7926Z" fill="black"/>
<path d="M97.3814 96.5455V47.5455H110.579L110.057 68.1818H126.837V47.5455H133.149H139.513V96.5455H126.837V78.3636H110.057V96.5455H97.3814Z" fill="black"/>
<path d="M190.763 73.2727C190.763 78.4545 189.753 82.8258 187.731 86.3864C185.71 89.9318 182.981 92.6212 179.546 94.4545C176.112 96.2727 172.281 97.1818 168.056 97.1818C163.8 97.1818 159.955 96.2652 156.52 94.4318C153.1 92.5833 150.38 89.8864 148.358 86.3409C146.352 82.7803 145.349 78.4242 145.349 73.2727C145.349 68.0909 146.352 63.7273 148.358 60.1818C150.38 56.6212 153.1 53.9318 156.52 52.1136C159.955 50.2803 163.8 49.3636 168.056 49.3636C172.281 49.3636 176.112 50.2803 179.546 52.1136C182.981 53.9318 185.71 56.6212 187.731 60.1818C189.753 63.7273 190.763 68.0909 190.763 73.2727ZM177.723 73.2727C177.723 70.4848 177.35 68.1364 176.605 66.2273C175.876 64.303 174.789 62.8485 173.345 61.8636C171.917 60.8636 170.154 60.3636 168.056 60.3636C165.959 60.3636 164.188 60.8636 162.744 61.8636C161.315 62.8485 160.229 64.303 159.484 66.2273C158.754 68.1364 158.39 70.4848 158.39 73.2727C158.39 76.0606 158.754 78.4167 159.484 80.3409C160.229 82.25 161.315 83.7045 162.744 84.7045C164.188 85.6894 165.959 86.1818 168.056 86.1818C170.154 86.1818 171.917 85.6894 173.345 84.7045C174.789 83.7045 175.876 82.25 176.605 80.3409C177.35 78.4167 177.723 76.0606 177.723 73.2727Z" fill="black"/>
<path d="M196.628 96.5455V50H216.782C220.247 50 223.279 50.6818 225.878 52.0455C228.477 53.4091 230.499 55.3258 231.943 57.7955C233.387 60.2652 234.109 63.1515 234.109 66.4545C234.109 69.7879 233.364 72.6742 231.874 75.1136C230.4 77.553 228.325 79.4318 225.65 80.75C222.991 82.0682 219.882 82.7273 216.326 82.7273H204.288V72.9091H213.772C215.262 72.9091 216.531 72.6515 217.58 72.1364C218.644 71.6061 219.457 70.8561 220.019 69.8864C220.597 68.9167 220.886 67.7727 220.886 66.4545C220.886 65.1212 220.597 63.9848 220.019 63.0455C219.457 62.0909 218.644 61.3636 217.58 60.8636C216.531 60.3485 215.262 60.0909 213.772 60.0909H209.304V96.5455H196.628Z" fill="black"/>
<path d="M1.26953 47.5455V1H21.5144C25.071 1 28.0575 1.47727 30.4741 2.43182C32.906 3.38636 34.7374 4.73485 35.9685 6.47727C37.2148 8.2197 37.838 10.2727 37.838 12.6364C37.838 14.3485 37.458 15.9091 36.6981 17.3182C35.9533 18.7273 34.9046 19.9091 33.5519 20.8636C32.1992 21.803 30.6185 22.4545 28.8099 22.8182V23.2727C30.8161 23.3485 32.64 23.8561 34.2815 24.7955C35.9229 25.7197 37.23 27 38.2028 28.6364C39.1755 30.2576 39.6619 32.1667 39.6619 34.3636C39.6619 36.9091 38.9931 39.1742 37.6556 41.1591C36.3333 43.1439 34.4487 44.7045 32.0016 45.8409C29.5546 46.9773 26.6364 47.5455 23.2471 47.5455H1.26953ZM13.9454 37.4545H19.8729C22.0008 37.4545 23.5967 37.0606 24.6606 36.2727C25.7245 35.4697 26.2565 34.2879 26.2565 32.7273C26.2565 31.6364 26.0057 30.7121 25.5041 29.9545C25.0026 29.197 24.2882 28.6212 23.3611 28.2273C22.4491 27.8333 21.3472 27.6364 20.0553 27.6364H13.9454V37.4545ZM13.9454 19.8182H19.1434C20.2529 19.8182 21.2332 19.6439 22.0844 19.2955C22.9355 18.947 23.5967 18.447 24.0678 17.7955C24.5542 17.1288 24.7974 16.3182 24.7974 15.3636C24.7974 13.9242 24.2806 12.8258 23.2471 12.0682C22.2136 11.2955 20.9065 10.9091 19.3258 10.9091H13.9454V19.8182Z" fill="black"/>
<path d="M56.829 1V47.5455H44.1531V1H56.829Z" fill="black"/>
<path d="M62.8363 47.5455V1H75.5122V19.8182H76.1505L90.1943 1H104.968L89.1912 21.7273L105.332 47.5455H97.7633H90.1943L79.7071 30.0909L75.5122 35.5455V47.5455H62.8363Z" fill="black"/>
<path d="M108.729 47.5455V1H142.38V11.1818H121.405V19.1818H140.647V29.3636H121.405V37.3636H142.288V47.5455H108.729Z" fill="black"/>
<path d="M79.7926 64.5455C79.671 63.0303 79.101 61.8485 78.0827 61C77.0796 60.1515 75.5521 59.7273 73.5002 59.7273C72.1931 59.7273 71.1216 59.8864 70.2857 60.2045C69.4649 60.5076 68.857 60.9242 68.4618 61.4545C68.0666 61.9848 67.8615 62.5909 67.8462 63.2727C67.8158 63.8333 67.9146 64.3409 68.1426 64.7955C68.3858 65.2348 68.7658 65.6364 69.2825 66C69.7993 66.3485 70.4605 66.6667 71.266 66.9545C72.0715 67.2424 73.0291 67.5 74.1386 67.7273L77.9687 68.5455C80.5525 69.0909 82.7639 69.8106 84.603 70.7045C86.4421 71.5985 87.9468 72.6515 89.1171 73.8636C90.2874 75.0606 91.1461 76.4091 91.6933 77.9091C92.2556 79.4091 92.5444 81.0455 92.5596 82.8182C92.5444 85.8788 91.7769 88.4697 90.257 90.5909C88.7371 92.7121 86.5637 94.3258 83.7367 95.4318C80.9249 96.5379 77.5431 97.0909 73.5914 97.0909C69.5333 97.0909 65.992 96.4924 62.9674 95.2955C59.958 94.0985 57.6174 92.2576 55.9455 89.7727C54.2889 87.2727 53.4529 84.0758 53.4377 80.1818H65.4752C65.5512 81.6061 65.9084 82.803 66.5468 83.7727C67.1851 84.7424 68.0818 85.4773 69.2369 85.9773C70.4073 86.4773 71.798 86.7273 73.409 86.7273C74.7617 86.7273 75.8941 86.5606 76.806 86.2273C77.7179 85.8939 78.4095 85.4318 78.8806 84.8409C79.3518 84.25 79.595 83.5758 79.6102 82.8182C79.595 82.1061 79.3594 81.4848 78.9034 80.9545C78.4627 80.4091 77.7331 79.9242 76.7148 79.5C75.6965 79.0606 74.321 78.6515 72.5883 78.2727L67.9374 77.2727C63.8034 76.3788 60.5432 74.8864 58.157 72.7955C55.786 70.6894 54.608 67.8182 54.6232 64.1818C54.608 61.2273 55.3984 58.6439 56.9943 56.4318C58.6053 54.2045 60.832 52.4697 63.6742 51.2273C66.5315 49.9848 69.8069 49.3636 73.5002 49.3636C77.2695 49.3636 80.5297 49.9924 83.2807 51.25C86.0317 52.5076 88.1519 54.2803 89.6414 56.5682C91.1461 58.8409 91.9061 61.5 91.9213 64.5455H79.7926Z" stroke="black" stroke-width="2" mask="url(#path-1-outside-1_36_26)"/>
<path d="M97.3814 96.5455V47.5455H110.579L110.057 68.1818H126.837V47.5455H133.149H139.513V96.5455H126.837V78.3636H110.057V96.5455H97.3814Z" stroke="black" stroke-width="2" mask="url(#path-1-outside-1_36_26)"/>
<path d="M190.763 73.2727C190.763 78.4545 189.753 82.8258 187.731 86.3864C185.71 89.9318 182.981 92.6212 179.546 94.4545C176.112 96.2727 172.281 97.1818 168.056 97.1818C163.8 97.1818 159.955 96.2652 156.52 94.4318C153.1 92.5833 150.38 89.8864 148.358 86.3409C146.352 82.7803 145.349 78.4242 145.349 73.2727C145.349 68.0909 146.352 63.7273 148.358 60.1818C150.38 56.6212 153.1 53.9318 156.52 52.1136C159.955 50.2803 163.8 49.3636 168.056 49.3636C172.281 49.3636 176.112 50.2803 179.546 52.1136C182.981 53.9318 185.71 56.6212 187.731 60.1818C189.753 63.7273 190.763 68.0909 190.763 73.2727ZM177.723 73.2727C177.723 70.4848 177.35 68.1364 176.605 66.2273C175.876 64.303 174.789 62.8485 173.345 61.8636C171.917 60.8636 170.154 60.3636 168.056 60.3636C165.959 60.3636 164.188 60.8636 162.744 61.8636C161.315 62.8485 160.229 64.303 159.484 66.2273C158.754 68.1364 158.39 70.4848 158.39 73.2727C158.39 76.0606 158.754 78.4167 159.484 80.3409C160.229 82.25 161.315 83.7045 162.744 84.7045C164.188 85.6894 165.959 86.1818 168.056 86.1818C170.154 86.1818 171.917 85.6894 173.345 84.7045C174.789 83.7045 175.876 82.25 176.605 80.3409C177.35 78.4167 177.723 76.0606 177.723 73.2727Z" stroke="black" stroke-width="2" mask="url(#path-1-outside-1_36_26)"/>
<path d="M196.628 96.5455V50H216.782C220.247 50 223.279 50.6818 225.878 52.0455C228.477 53.4091 230.499 55.3258 231.943 57.7955C233.387 60.2652 234.109 63.1515 234.109 66.4545C234.109 69.7879 233.364 72.6742 231.874 75.1136C230.4 77.553 228.325 79.4318 225.65 80.75C222.991 82.0682 219.882 82.7273 216.326 82.7273H204.288V72.9091H213.772C215.262 72.9091 216.531 72.6515 217.58 72.1364C218.644 71.6061 219.457 70.8561 220.019 69.8864C220.597 68.9167 220.886 67.7727 220.886 66.4545C220.886 65.1212 220.597 63.9848 220.019 63.0455C219.457 62.0909 218.644 61.3636 217.58 60.8636C216.531 60.3485 215.262 60.0909 213.772 60.0909H209.304V96.5455H196.628Z" stroke="black" stroke-width="2" mask="url(#path-1-outside-1_36_26)"/>
<path d="M1.26953 47.5455V1H21.5144C25.071 1 28.0575 1.47727 30.4741 2.43182C32.906 3.38636 34.7374 4.73485 35.9685 6.47727C37.2148 8.2197 37.838 10.2727 37.838 12.6364C37.838 14.3485 37.458 15.9091 36.6981 17.3182C35.9533 18.7273 34.9046 19.9091 33.5519 20.8636C32.1992 21.803 30.6185 22.4545 28.8099 22.8182V23.2727C30.8161 23.3485 32.64 23.8561 34.2815 24.7955C35.9229 25.7197 37.23 27 38.2028 28.6364C39.1755 30.2576 39.6619 32.1667 39.6619 34.3636C39.6619 36.9091 38.9931 39.1742 37.6556 41.1591C36.3333 43.1439 34.4487 44.7045 32.0016 45.8409C29.5546 46.9773 26.6364 47.5455 23.2471 47.5455H1.26953ZM13.9454 37.4545H19.8729C22.0008 37.4545 23.5967 37.0606 24.6606 36.2727C25.7245 35.4697 26.2565 34.2879 26.2565 32.7273C26.2565 31.6364 26.0057 30.7121 25.5041 29.9545C25.0026 29.197 24.2882 28.6212 23.3611 28.2273C22.4491 27.8333 21.3472 27.6364 20.0553 27.6364H13.9454V37.4545ZM13.9454 19.8182H19.1434C20.2529 19.8182 21.2332 19.6439 22.0844 19.2955C22.9355 18.947 23.5967 18.447 24.0678 17.7955C24.5542 17.1288 24.7974 16.3182 24.7974 15.3636C24.7974 13.9242 24.2806 12.8258 23.2471 12.0682C22.2136 11.2955 20.9065 10.9091 19.3258 10.9091H13.9454V19.8182Z" stroke="black" stroke-width="2" mask="url(#path-1-outside-1_36_26)"/>
<path d="M56.829 1V47.5455H44.1531V1H56.829Z" stroke="black" stroke-width="2" mask="url(#path-1-outside-1_36_26)"/>
<path d="M62.8363 47.5455V1H75.5122V19.8182H76.1505L90.1943 1H104.968L89.1912 21.7273L105.332 47.5455H97.7633H90.1943L79.7071 30.0909L75.5122 35.5455V47.5455H62.8363Z" stroke="black" stroke-width="2" mask="url(#path-1-outside-1_36_26)"/>
<path d="M108.729 47.5455V1H142.38V11.1818H121.405V19.1818H140.647V29.3636H121.405V37.3636H142.288V47.5455H108.729Z" stroke="black" stroke-width="2" mask="url(#path-1-outside-1_36_26)"/>
</svg>
